HIERARCHY
ROOT Hips
{
 OFFSET 0.000000 0.000000 0.000000
 CHANNELS 6 Xposition Yposition Zposition Yrotation Xrotation Zrotation
 JOINT Chest
 {
  OFFSET 0.000000 9.764950 -1.084995
  CHANNELS 3 Yrotation Xrotation Zrotation
  JOINT Chest2
  {
   OFFSET 0.000000 10.818830 0.000000
   CHANNELS 3 Yrotation Xrotation Zrotation
   JOINT Chest3
   {
    OFFSET 0.000000 9.877666 -0.002167
    CHANNELS 3 Yrotation Xrotation Zrotation
    JOINT Chest4
    {
     OFFSET 0.000000 9.866636 -0.002169
     CHANNELS 3 Yrotation Xrotation Zrotation
     JOINT Neck
     {
      OFFSET 0.000000 13.822934 0.000000
      CHANNELS 3 Yrotation Xrotation Zrotation
      JOINT Head
      {
       OFFSET 0.000000 9.186386 0.004660
       CHANNELS 3 Yrotation Xrotation Zrotation
       End Site
       {
        OFFSET 0.000000 17.063601 0.000627
       }
      }
     }
     JOINT RightCollar
     {
      OFFSET -3.011809 7.749754 0.000000
      CHANNELS 3 Yrotation Xrotation Zrotation
      JOINT RightShoulder
      {
       OFFSET -14.096434 0.000000 0.000000
       CHANNELS 3 Yrotation Xrotation Zrotation
       JOINT RightElbow
       {
        OFFSET -30.197705 0.000000 0.000000
        CHANNELS 3 Yrotation Xrotation Zrotation
        JOINT RightWrist
        {
         OFFSET -24.683363 0.000000 0.000000
         CHANNELS 3 Yrotation Xrotation Zrotation
         End Site
         {
          OFFSET -18.425258 0.000000 0.000000
         }
        }
       }
      }
     }
     JOINT LeftCollar
     {
      OFFSET 3.011809 7.749754 0.000000
      CHANNELS 3 Yrotation Xrotation Zrotation
      JOINT LeftShoulder
      {
       OFFSET 14.096434 0.000000 0.000000
       CHANNELS 3 Yrotation Xrotation Zrotation
       JOINT LeftElbow
       {
        OFFSET 30.197705 0.000000 0.000000
        CHANNELS 3 Yrotation Xrotation Zrotation
        JOINT LeftWrist
        {
         OFFSET 24.683363 0.000000 0.000000
         CHANNELS 3 Yrotation Xrotation Zrotation
         End Site
         {
          OFFSET 18.425258 0.000000 0.000000
         }
        }
       }
      }
     }
    }
   }
  }
 }
 JOINT RightHip
 {
  OFFSET -8.037357 0.006404 -0.000712
  CHANNELS 3 Yrotation Xrotation Zrotation
  JOINT RightKnee
  {
   OFFSET 0.000000 -41.734021 -0.000512
   CHANNELS 3 Yrotation Xrotation Zrotation
   JOINT RightAnkle
   {
    OFFSET 0.000000 -40.719805 -0.000863
    CHANNELS 3 Yrotation Xrotation Zrotation
    JOINT RightToe
    {
     OFFSET 0.000000 -6.988584 15.862342
     CHANNELS 3 Yrotation Xrotation Zrotation
     End Site
     {
      OFFSET 0.000000 -1.553448 6.718690
     }
    }
   }
  }
 }
 JOINT LeftHip
 {
  OFFSET 8.037357 0.004204 -0.000467
  CHANNELS 3 Yrotation Xrotation Zrotation
  JOINT LeftKnee
  {
   OFFSET 0.000000 -41.734021 -0.000512
   CHANNELS 3 Yrotation Xrotation Zrotation
   JOINT LeftAnkle
   {
    OFFSET 0.000000 -40.719805 -0.000863
    CHANNELS 3 Yrotation Xrotation Zrotation
    JOINT LeftToe
    {
     OFFSET 0.000000 -6.988584 15.862342
     CHANNELS 3 Yrotation Xrotation Zrotation
     End Site
     {
      OFFSET 0.000000 -1.553448 6.718690
     }
    }
   }
  }
 }
}
MOTION
Frames: 8
Frame Time: 0.016667
4.053936 90.864174 10.344454 -7.122680 8.899262 -0.599231 -0.328403 -5.454750 -2.435021 -0.063168 -8.247879 -1.095193 -0.062456 -2.427450 -1.101616 -0.135376 4.015596 -0.827959 -4.660824 17.576915 1.421293 -9.072964 -3.141286 4.185896 -5.673866 -27.392311 -16.184507 -12.309039 -30.540666 43.437637 81.543684 -31.972642 0.597859 32.803157 10.329866 -19.094506 4.362570 10.275290 -12.793321 -4.949928 4.676230 -75.524689 -2.633989 -1.565376 -1.566148 -4.354979 -9.295237 5.170087 0.357529 -5.188146 1.690394 0.588278 0.991943 -0.049707 -2.130030 -6.142930 -0.623000 0.000000 -0.000000 0.000000 -0.648993 -4.275753 -0.038473 -0.703476 0.740035 0.213342 -0.818945 -5.541371 0.478067 0.000000 -0.000000 -0.000000
4.058801 90.852673 10.354951 -7.122260 8.845896 -0.663391 -0.337345 -5.427385 -2.403448 -0.068056 -8.235720 -1.081119 -0.067301 -2.415291 -1.088038 -0.137900 4.024737 -0.817790 -4.653742 17.569924 1.420883 -9.060238 -3.154826 4.183358 -5.654130 -27.299195 -16.127152 -12.248026 -30.698431 43.304531 81.507960 -32.024756 0.550699 32.775945 10.309187 -19.065282 4.360568 10.237882 -12.736166 -4.935882 4.702507 -75.581054 -2.636535 -1.562585 -1.569215 -4.350449 -9.292769 5.160323 0.341509 -5.143067 1.764132 0.623495 1.014535 -0.079436 -2.152489 -6.109424 -0.607692 0.000000 -0.000000 0.000000 -0.625017 -4.214337 0.014465 -0.756262 0.726742 0.226877 -0.793325 -5.550368 0.469730 0.000000 -0.000000 -0.000000
4.063666 90.841173 10.365447 -7.121779 8.792529 -0.727541 -0.346269 -5.400008 -2.371887 -0.072940 -8.223557 -1.067048 -0.072142 -2.403129 -1.074463 -0.140421 4.033881 -0.807623 -4.646659 17.562934 1.420474 -9.047510 -3.168364 4.180817 -5.634292 -27.206082 -16.069838 -12.186536 -30.856011 43.170918 81.472241 -32.076838 0.503527 32.748719 10.288517 -19.036057 4.358541 10.200487 -12.679008 -4.921871 4.728801 -75.637415 -2.639081 -1.559796 -1.572282 -4.345920 -9.290300 5.150560 0.325533 -5.097956 1.837843 0.658702 1.037145 -0.109150 -2.174923 -6.075910 -0.592379 0.000000 0.000000 0.000000 -0.600970 -4.152973 0.067451 -0.809052 0.713462 0.240425 -0.767702 -5.559362 0.461395 -0.000000 -0.000000 0.000000
4.069284 90.831848 10.374881 -7.124075 8.743214 -0.783198 -0.353195 -5.374487 -2.344449 -0.076812 -8.212224 -1.054803 -0.075981 -2.391796 -1.062612 -0.142330 4.042398 -0.798745 -4.641939 17.557441 1.419392 -9.038814 -3.179002 4.177702 -5.614510 -27.123233 -16.017828 -12.128982 -30.998727 43.048221 81.439757 -32.123916 0.460883 32.720937 10.268378 -19.006801 4.358216 10.165649 -12.627889 -4.909732 4.753636 -75.689402 -2.640901 -1.559027 -1.574200 -4.342724 -9.290192 5.143099 0.313606 -5.057081 1.901188 0.690333 1.058682 -0.135199 -2.194639 -6.045505 -0.578139 -0.000000 0.000000 -0.000000 -0.576234 -4.094934 0.111681 -0.857320 0.700870 0.252313 -0.743736 -5.566288 0.454623 -0.000000 0.000000 -0.000000
4.076042 90.825923 10.382739 -7.132164 8.699538 -0.826227 -0.356773 -5.351682 -2.322884 -0.079019 -8.202105 -1.045154 -0.078169 -2.381678 -1.053186 -0.143199 4.050000 -0.791682 -4.641293 17.554297 1.416851 -9.036979 -3.185104 4.173064 -5.593344 -27.056536 -15.973985 -12.076927 -31.119512 42.942250 81.412317 -32.163586 0.423992 32.690176 10.248068 -18.976247 4.361107 10.134082 -12.585968 -4.900471 4.776767 -75.735781 -2.640981 -1.561812 -1.573555 -4.341327 -9.294711 5.139839 0.309271 -5.022782 1.949154 0.716417 1.079484 -0.156006 -2.210081 -6.019770 -0.565360 0.000000 -0.000000 -0.000000 -0.548863 -4.040729 0.142569 -0.898985 0.688816 0.261670 -0.722101 -5.570016 0.449841 0.000000 -0.000000 -0.000000
4.083553 90.822175 10.389533 -7.143064 8.659906 -0.860758 -0.358363 -5.330741 -2.305436 -0.080216 -8.192818 -1.037328 -0.079357 -2.372391 -1.045483 -0.143456 4.056974 -0.785907 -4.643010 17.552650 1.413639 -9.039178 -3.188309 4.167855 -5.572294 -27.000101 -15.935421 -12.029038 -31.225516 42.847443 81.388113 -32.198269 0.391628 32.658858 10.228290 -18.945662 4.365716 10.105064 -12.550090 -4.893066 4.798429 -75.777787 -2.640333 -1.566618 -1.571761 -4.341261 -9.301592 5.138881 0.308955 -4.992743 1.986774 0.738931 1.099200 -0.173153 -2.222819 -5.997148 -0.553657 0.000000 -0.000000 -0.000000 -0.520843 -3.989819 0.164687 -0.936127 0.677446 0.269367 -0.702126 -5.571678 0.446620 0.000000 -0.000000 -0.000000
4.091399 90.819105 10.395741 -7.150623 8.623587 -0.890711 -0.360046 -5.310969 -2.290959 -0.081360 -8.184045 -1.030837 -0.080492 -2.363618 -1.039108 -0.143782 4.063562 -0.781130 -4.644331 17.551445 1.411446 -9.040956 -3.190635 4.164353 -5.555942 -26.946512 -15.898766 -11.985475 -31.323416 42.758242 81.364939 -32.230239 0.364665 32.633717 10.211667 -18.918817 4.369260 10.078992 -12.516831 -4.886304 4.817868 -75.814755 -2.641263 -1.570872 -1.571919 -4.342454 -9.306409 5.136834 0.305984 -4.964247 2.018779 0.760245 1.115704 -0.187741 -2.234847 -5.976084 -0.542956 0.000000 -0.000000 0.000000 -0.497474 -3.943887 0.182952 -0.970465 0.667870 0.276343 -0.683452 -5.572602 0.445235 -0.000000 -0.000000 -0.000000
4.099496 90.816328 10.401587 -7.151242 8.590607 -0.916768 -0.362737 -5.292010 -2.279555 -0.082851 -8.175624 -1.025735 -0.081971 -2.355198 -1.034157 -0.144481 4.069884 -0.777424 -4.644518 17.549891 1.411355 -9.041371 -3.193506 4.164373 -5.547777 -26.892341 -15.862570 -11.947414 -31.415194 42.672393 81.340664 -32.259742 0.346920 32.619688 10.201193 -18.898803 4.370052 10.055936 -12.485235 -4.880604 4.835232 -75.845778 -2.645544 -1.573511 -1.575948 -4.344945 -9.306434 5.131043 0.296032 -4.935546 2.046141 0.781813 1.126556 -0.199729 -2.246893 -5.955615 -0.533476 0.000000 0.000000 0.000000 -0.482389 -3.903998 0.198491 -1.002747 0.660805 0.282977 -0.665409 -5.573278 0.446357 -0.000000 0.000000 -0.000000
